<?xml version="1.0" standalone="no"?>
<!DOCTYPE svg PUBLIC "-//W3C//DTD SVG 20010904//EN"
 "http://www.w3.org/TR/2001/REC-SVG-20010904/DTD/svg10.dtd">
<svg version="1.0" xmlns="http://www.w3.org/2000/svg"
 width="720.000000pt" height="720.000000pt" viewBox="0 0 720.000000 720.000000"
 preserveAspectRatio="xMidYMid meet">
<metadata>
Created by potrace 1.11, written by Peter Selinger 2001-2013
</metadata>
<g transform="translate(0.000000,720.000000) scale(0.100000,-0.100000)"
fill="#000000" stroke="none">
<path d="M6870 7189 c-19 -5 -48 -11 -65 -13 -16 -3 -41 -8 -55 -11 -14 -3
-36 -8 -50 -11 -14 -2 -45 -9 -70 -14 -25 -5 -56 -12 -70 -14 -14 -2 -101 -20
-195 -40 -93 -19 -181 -38 -195 -40 -14 -3 -36 -7 -50 -10 -37 -8 -122 -26
-150 -31 -44 -9 -124 -25 -175 -36 -27 -6 -63 -13 -80 -15 -16 -3 -48 -10 -70
-15 -22 -5 -53 -12 -70 -15 -43 -8 -556 -112 -640 -130 -38 -8 -83 -17 -100
-20 -16 -3 -61 -12 -100 -21 -38 -8 -79 -16 -90 -19 -11 -2 -45 -8 -75 -14
-30 -6 -64 -12 -75 -14 -40 -9 -270 -57 -290 -60 -17 -3 -91 -18 -105 -21 -3
-1 -30 -7 -60 -13 -30 -7 -66 -14 -80 -17 -14 -3 -90 -18 -170 -34 -80 -17
-156 -32 -170 -35 -38 -7 -232 -47 -255 -52 -11 -3 -42 -9 -70 -14 -27 -6 -59
-12 -70 -14 -11 -2 -101 -21 -200 -41 -99 -20 -189 -39 -200 -41 -19 -4 -120
-24 -140 -29 -9 -1 -50 -10 -105 -21 -8 -1 -48 -10 -87 -18 -40 -9 -87 -18
-104 -21 -18 -3 -96 -19 -174 -35 -79 -17 -145 -30 -148 -30 -2 0 -4 -944 -3
-2097 1 -1154 0 -2108 -2 -2120 -3 -18 -8 -20 -33 -13 -101 29 -470 33 -550 6
-8 -3 -30 -7 -49 -10 -201 -31 -453 -136 -649 -269 -93 -64 -263 -230 -323
-317 -264 -380 -239 -803 66 -1088 167 -156 373 -248 646 -289 60 -9 353 -9
412 0 69 10 122 19 133 22 104 23 264 75 334 106 104 48 206 101 209 110 2 5
9 9 15 9 7 0 46 26 88 58 265 198 425 434 476 702 3 14 6 911 8 1995 3 2137 3
2011 11 2003 3 -3 29 0 57 7 29 8 68 16 87 19 56 9 94 16 112 22 10 3 30 7 45
10 16 2 42 7 58 11 17 4 35 8 40 9 6 1 57 12 115 24 58 12 114 23 125 25 17 3
109 21 195 39 14 3 72 15 130 27 58 11 112 22 120 24 8 2 51 10 95 19 44 9
166 34 270 56 105 21 202 42 218 45 15 3 38 7 52 10 14 3 35 7 48 9 54 11 292
59 397 81 63 14 126 26 140 29 14 2 45 9 70 15 25 5 56 12 70 14 14 3 81 16
150 31 69 14 139 28 155 30 26 5 196 40 440 91 44 9 83 19 87 21 10 7 9 157
10 -1458 1 -837 -3 -1418 -8 -1419 -5 -1 -49 5 -99 12 -170 25 -381 14 -595
-30 -122 -26 -351 -117 -475 -189 -103 -59 -202 -137 -295 -232 -139 -140
-214 -256 -271 -420 -41 -116 -53 -244 -36 -375 27 -203 165 -411 357 -540
133 -89 317 -160 480 -185 41 -6 86 -13 100 -16 36 -6 257 -5 310 1 46 6 82
11 148 21 20 3 79 17 131 30 83 22 112 32 196 63 79 30 308 154 335 181 3 3
30 24 61 47 68 51 177 159 234 233 108 140 176 294 199 445 15 105 16 5337 1
5341 -5 1 -26 -2 -45 -7z"/>
</g>
</svg>
